<svg width="512" height="512" xmlns="http://www.w3.org/2000/svg">

 <g>
  <title>background</title>
  <rect fill="none" id="canvas_background" height="402" width="582" y="-1" x="-1"/>
 </g>
 <g>
  <title>Layer 1</title>
  <rect id="svg_1" x="538" width="512" height="512" fill="#ffc107"/>
  <rect id="svg_2" x="-537" width="512" height="512" fill="#ffc107"/>
  <path id="svg_3" fill="#ffc107" d="m256,36.082c-84.553,0 -153.105,68.554 -153.105,153.106c0,113.559 153.105,286.73 153.105,286.73s153.106,-173.172 153.106,-286.73c0,-84.552 -68.554,-153.106 -153.106,-153.106zm0,217.705c-35.682,0 -64.6,-28.917 -64.6,-64.6s28.918,-64.6 64.6,-64.6s64.6,28.917 64.6,64.6s-28.918,64.6 -64.6,64.6z"/>
  <path id="svg_4" fill="#ffc107" d="m794,36.082c-84.553,0 -153.105,68.554 -153.105,153.106c0,113.559 153.105,286.73 153.105,286.73s153.106,-173.172 153.106,-286.73c0,-84.552 -68.554,-153.106 -153.106,-153.106zm0,217.705c-35.682,0 -64.6,-28.917 -64.6,-64.6s28.918,-64.6 64.6,-64.6s64.6,28.917 64.6,64.6s-28.918,64.6 -64.6,64.6z"/>
  <path id="svg_5" fill="#ffc107" d="m-281,36.082c-84.553,0 -153.105,68.554 -153.105,153.106c0,113.559 153.105,286.73 153.105,286.73s153.106,-173.172 153.106,-286.73c0,-84.552 -68.554,-153.106 -153.106,-153.106zm0,217.705c-35.682,0 -64.6,-28.917 -64.6,-64.6s28.918,-64.6 64.6,-64.6s64.6,28.917 64.6,64.6s-28.918,64.6 -64.6,64.6z"/>
  <ellipse ry="70.01539" rx="80.369779" id="svg_6" cy="190.557813" cx="262.902941" fill-opacity="null" stroke-opacity="null" stroke-width="null" stroke="null" fill="#000"/>
 </g>
</svg>